# xmcd
#
# Track frame offsets:
#	150
#	9808
#	18340
#	32315
#	45112
#	55323
#	70402
#	82580
#	92414
#	103065
#	115110
#	126712
#	143571
#	155109
#	173853
#	190469
#	207713
#	219608
#	237093
#	250710
#
# Disc length: 3465 seconds
#
# Revision: 0
# Processed by: cddbd v1.5.1PL2 Copyright (c) Steve Scherf et al.
# Submitted via: dBpowerAMP V4.0
#
DISCID=070d8714
DTITLE=Various Artist - Country Christmas - CD 2
DYEAR=2003
DGENRE=Country
TTITLE0=Kate Smith - Joy To The World
TTITLE1=Gene Autry - Frosty the Snowman
TTITLE2=Glen Campbell - What Child Is This
TTITLE3=Kitty Wells - Christmas Ain´t Like Christmas Anymore
TTITLE4=Gene Autry - Sleigh Bells
TTITLE5=Glen Campbell - I´ll Be Home For Christmas
TTITLE6=Rosemary Clooney - It Came Upon A Midnight Clear
TTITLE7=Gene Autry - Here Comes Santa Claus
TTITLE8=Kitty Wells - Away In a Manger
TTITLE9=Jack Greene - Hark! The Herold Angels Sing
TTITLE10=Rosemary Clooney - Suzy Snowflake
TTITLE11=Glen Campbell - O Holy Night
TTITLE12=Gene Autry - Up On A House Top
TTITLE13=Rosemary Clooney - Have Yourself A Merry Little Christmas
TTITLE14=Jack Greene - O Come All Ye Faithfull
TTITLE15=Chris The Cool Yule Band - Santa´s Lost His Ho Ho Ho
TTITLE16=Country Cousins - Snowy White Snow and Jingle Bells
TTITLE17=Big Al - The House Where Mr. Santa Claus Lives
TTITLE18=Aaron J. Woolley - Christmas Thru´ To New Years
TTITLE19=Country Cousins - Hokey Cokey
EXTD=Country Christmas - CD 2
EXTT0=
EXTT1=
EXTT2=
EXTT3=
EXTT4=
EXTT5=
EXTT6=
EXTT7=
EXTT8=
EXTT9=
EXTT10=
EXTT11=
EXTT12=
EXTT13=
EXTT14=
EXTT15=
EXTT16=
EXTT17=
EXTT18=
EXTT19=
PLAYORDER=
